<?xml version="1.0" encoding="UTF-8" standalone="no"?>
<svg
   width="16"
   height="16"
   fill="currentColor"
   class="bi bi-arrow-right-circle-fill"
   viewBox="0 0 16 16"
   version="1.1"
   id="svg1"
   sodipodi:docname="arrow-right-circle-fill.svg"
   inkscape:version="1.3.2 (091e20e, 2023-11-25)"
   xmlns:inkscape="http://www.inkscape.org/namespaces/inkscape"
   xmlns:sodipodi="http://sodipodi.sourceforge.net/DTD/sodipodi-0.dtd"
   xmlns="http://www.w3.org/2000/svg"
   xmlns:svg="http://www.w3.org/2000/svg">
  <defs
     id="defs1">
    <inkscape:path-effect
       effect="fill_between_many"
       method="originald"
       linkedpaths="#path1,0,1|"
       id="path-effect1" />
  </defs>
  <sodipodi:namedview
     id="namedview1"
     pagecolor="#ffffff"
     bordercolor="#999999"
     borderopacity="1"
     inkscape:showpageshadow="2"
     inkscape:pageopacity="0"
     inkscape:pagecheckerboard="0"
     inkscape:deskcolor="#d1d1d1"
     inkscape:zoom="32"
     inkscape:cx="10.4375"
     inkscape:cy="12.65625"
     inkscape:window-width="2560"
     inkscape:window-height="1381"
     inkscape:window-x="0"
     inkscape:window-y="31"
     inkscape:window-maximized="1"
     inkscape:current-layer="svg1" />
  <circle
     style="display:inline;fill:#ffffff;stroke:#000000;stroke-width:0.973103;stroke-linejoin:round;stroke-dasharray:none;stroke-opacity:1"
     id="path2"
     cx="8.015625"
     cy="8.015625"
     r="7.4274244" />
  <path
     inkscape:original-d="M 0,0"
     inkscape:path-effect="#path-effect1"
     d="m 7.6041627,-0.05859673 a 7.734375,7.734375 0 1 1 0,15.46874973 7.734375,7.734375 0 0 1 0,-15.46874973 z"
     id="path3"
     transform="matrix(0.91138361,0,0,0.91138361,1.0540658,1.0515405)"
     style="display:inline" />
  <path
     d="m 8.015625,0.25 a 7.734375,7.734375 0 1 1 0,15.46875 7.734375,7.734375 0 0 1 0,-15.46875 M 4.6318359,7.5009766 a 0.48339844,0.48339844 0 0 0 0,0.9667968 H 10.23249 L 8.1567773,10.54252 a 0.48400907,0.48400907 0 0 0 0.6844922,0.684492 L 11.74166,8.3266211 a 0.48339844,0.48339844 0 0 0 0,-0.6844922 L 8.8412695,4.7417383 A 0.48400908,0.48400908 0 1 0 8.1567773,5.4262305 L 10.23249,7.5009766 Z"
     id="path1"
     style="display:inline;fill:#d4d4d4;fill-opacity:1;fill-rule:evenodd;stroke-width:0.966547;stroke-dasharray:none"
     transform="matrix(0.91138361,0,0,0.91138361,0.6790658,0.7702905)" />
</svg>
